<svg width="1210" height="640" viewBox="0 0 1210 640" fill="none" xmlns="http://www.w3.org/2000/svg">
<g filter="url(#filter0_di_14_122)">
<path d="M1 31C1 14.4315 14.4315 1 31 1H1171C1187.57 1 1201 14.4315 1201 31V601C1201 617.569 1187.57 631 1171 631H31C14.4314 631 1 617.569 1 601V31Z" fill="#18181B"/>
<path d="M1 31C1 14.4315 14.4315 1 31 1H1171C1187.57 1 1201 14.4315 1201 31V601C1201 617.569 1187.57 631 1171 631H31C14.4314 631 1 617.569 1 601V31Z" stroke="black" stroke-width="2"/>
</g>
<g filter="url(#filter1_di_14_122)">
<path d="M228 380.322C232.5 393.336 292.5 455.405 307 455.405C321.5 455.405 528 243.67 528 243.67V160.077C528 160.077 319 380.322 307 380.322C295 380.322 279 337.774 264.5 339.276C250 340.778 223.5 367.307 228 380.322Z" fill="#BBFE3C"/>
<path d="M228 380.322C232.5 393.336 292.5 455.405 307 455.405C321.5 455.405 528 243.67 528 243.67V160.077C528 160.077 319 380.322 307 380.322C295 380.322 279 337.774 264.5 339.276C250 340.778 223.5 367.307 228 380.322Z" stroke="black" stroke-width="3"/>
</g>
<g filter="url(#filter2_di_14_122)">
<path d="M505.5 478.43C505.5 503.959 500 518.475 480 518.475H316.5L340 541H505.5C518.5 534.493 525 529.487 527.5 514.971V298.23L505.5 318.753V478.43Z" fill="#BBFE3C"/>
<path d="M505.5 478.43C505.5 503.959 500 518.475 480 518.475H316.5L340 541H505.5C518.5 534.493 525 529.487 527.5 514.971V298.23L505.5 318.753V478.43Z" stroke="black" stroke-width="3"/>
</g>
<g filter="url(#filter3_di_14_122)">
<path fill-rule="evenodd" clip-rule="evenodd" d="M287 235.16C130.2 402.546 235.167 495.783 293.5 541H208H107C91 538.497 83 532.991 78 514.971V318.753V118.03V104.515C78 99.2371 78 99.5 81 94C86 91 85.9232 91 91 91H502C514.074 95.2441 522.5 103.013 525 109.02C527.5 115.027 528 123.036 526.5 124.537L505.5 150.066C505.5 119.532 495 116.528 457.5 116.528C457.5 116.528 186 115.527 148.5 115.527C111 115.527 102.5 118.531 102.5 152.068V361.801V493.447C102.5 510.466 111.5 518.475 135 518.475H184.766C131.099 460.951 91.4837 353.404 255 198.119C255 198.119 214 207.63 208 198.119C202 188.608 201 160.577 208 150.066C215 139.554 308.848 137.071 327 150.066C345.152 163.06 343.722 267.68 327 274.204C310.278 280.727 291.5 278.208 287 274.204C282.5 270.199 287 235.16 287 235.16Z" fill="#0FFAF5"/>
<path fill-rule="evenodd" clip-rule="evenodd" d="M287 235.16C130.2 402.546 235.167 495.783 293.5 541H208H107C91 538.497 83 532.991 78 514.971V318.753V118.03V104.515C78 99.2371 78 99.5 81 94C86 91 85.9232 91 91 91H502C514.074 95.2441 522.5 103.013 525 109.02C527.5 115.027 528 123.036 526.5 124.537L505.5 150.066C505.5 119.532 495 116.528 457.5 116.528C457.5 116.528 186 115.527 148.5 115.527C111 115.527 102.5 118.531 102.5 152.068V361.801V493.447C102.5 510.466 111.5 518.475 135 518.475H184.766C131.099 460.951 91.4837 353.404 255 198.119C255 198.119 214 207.63 208 198.119C202 188.608 201 160.577 208 150.066C215 139.554 308.848 137.071 327 150.066C345.152 163.06 343.722 267.68 327 274.204C310.278 280.727 291.5 278.208 287 274.204C282.5 270.199 287 235.16 287 235.16Z" stroke="black" stroke-width="3"/>
</g>
<mask id="path-5-outside-1_14_122" maskUnits="userSpaceOnUse" x="639" y="262" width="495" height="110" fill="black">
<rect fill="white" x="639" y="262" width="495" height="110"/>
<path d="M642.331 367V265.182H660.776V311.964H662.018L701.741 265.182H724.263L684.888 310.871L724.611 367H702.437L672.061 323.349L660.776 336.673V367H642.331ZM777.856 368.541C773.017 368.541 768.659 367.679 764.781 365.956C760.936 364.199 757.887 361.614 755.633 358.2C753.412 354.786 752.302 350.577 752.302 345.572C752.302 341.264 753.097 337.701 754.688 334.884C756.279 332.066 758.45 329.812 761.201 328.122C763.952 326.432 767.051 325.156 770.498 324.294C773.978 323.399 777.574 322.753 781.286 322.355C785.761 321.891 789.39 321.477 792.174 321.112C794.958 320.714 796.98 320.118 798.239 319.322C799.532 318.494 800.178 317.218 800.178 315.494V315.196C800.178 311.451 799.068 308.551 796.847 306.496C794.627 304.441 791.428 303.413 787.252 303.413C782.844 303.413 779.347 304.375 776.762 306.297C774.21 308.219 772.487 310.49 771.592 313.108L754.788 310.722C756.114 306.081 758.301 302.204 761.35 299.088C764.4 295.939 768.128 293.586 772.536 292.028C776.945 290.438 781.817 289.642 787.153 289.642C790.832 289.642 794.494 290.073 798.14 290.935C801.786 291.796 805.117 293.222 808.133 295.21C811.149 297.166 813.569 299.834 815.391 303.214C817.248 306.595 818.176 310.821 818.176 315.892V367H800.874V356.51H800.278C799.184 358.631 797.643 360.62 795.654 362.476C793.699 364.299 791.23 365.774 788.247 366.901C785.297 367.994 781.833 368.541 777.856 368.541ZM782.529 355.317C786.142 355.317 789.274 354.604 791.926 353.179C794.577 351.721 796.615 349.798 798.041 347.412C799.499 345.026 800.228 342.424 800.228 339.607V330.608C799.665 331.072 798.703 331.503 797.345 331.901C796.019 332.298 794.527 332.646 792.87 332.945C791.213 333.243 789.572 333.508 787.948 333.74C786.324 333.972 784.916 334.171 783.722 334.337C781.038 334.701 778.635 335.298 776.514 336.126C774.392 336.955 772.719 338.115 771.492 339.607C770.266 341.065 769.653 342.954 769.653 345.274C769.653 348.589 770.863 351.091 773.282 352.781C775.702 354.472 778.784 355.317 782.529 355.317ZM873.869 322.256V367H855.872V290.636H873.074V303.612H873.969C875.725 299.337 878.526 295.939 882.371 293.42C886.249 290.902 891.038 289.642 896.739 289.642C902.009 289.642 906.599 290.769 910.51 293.023C914.454 295.277 917.503 298.541 919.658 302.817C921.845 307.092 922.922 312.279 922.889 318.378V367H904.892V321.162C904.892 316.058 903.566 312.064 900.915 309.18C898.296 306.297 894.667 304.855 890.027 304.855C886.878 304.855 884.078 305.551 881.625 306.943C879.205 308.302 877.3 310.274 875.908 312.859C874.549 315.445 873.869 318.577 873.869 322.256ZM961.58 367V265.182H979.577V303.264H980.323C981.251 301.408 982.56 299.436 984.251 297.348C985.941 295.227 988.228 293.42 991.111 291.929C993.995 290.404 997.674 289.642 1002.15 289.642C1008.05 289.642 1013.37 291.15 1018.11 294.166C1022.88 297.149 1026.66 301.574 1029.44 307.44C1032.26 313.274 1033.67 320.433 1033.67 328.918C1033.67 337.303 1032.29 344.429 1029.54 350.295C1026.79 356.162 1023.05 360.636 1018.31 363.719C1013.57 366.801 1008.2 368.342 1002.2 368.342C997.823 368.342 994.194 367.613 991.31 366.155C988.427 364.696 986.107 362.94 984.35 360.885C982.626 358.797 981.284 356.825 980.323 354.969H979.279V367H961.58ZM979.229 328.818C979.229 333.757 979.925 338.082 981.317 341.794C982.742 345.506 984.781 348.406 987.432 350.494C990.117 352.549 993.365 353.577 997.177 353.577C1001.15 353.577 1004.48 352.516 1007.17 350.395C1009.85 348.241 1011.88 345.307 1013.23 341.595C1014.63 337.85 1015.32 333.591 1015.32 328.818C1015.32 324.079 1014.64 319.869 1013.28 316.19C1011.93 312.511 1009.9 309.628 1007.22 307.54C1004.53 305.452 1001.19 304.408 997.177 304.408C993.332 304.408 990.067 305.419 987.383 307.44C984.698 309.462 982.66 312.296 981.268 315.942C979.909 319.588 979.229 323.88 979.229 328.818ZM1090.54 368.541C1085.7 368.541 1081.35 367.679 1077.47 365.956C1073.62 364.199 1070.57 361.614 1068.32 358.2C1066.1 354.786 1064.99 350.577 1064.99 345.572C1064.99 341.264 1065.78 337.701 1067.38 334.884C1068.97 332.066 1071.14 329.812 1073.89 328.122C1076.64 326.432 1079.74 325.156 1083.18 324.294C1086.66 323.399 1090.26 322.753 1093.97 322.355C1098.45 321.891 1102.08 321.477 1104.86 321.112C1107.64 320.714 1109.67 320.118 1110.93 319.322C1112.22 318.494 1112.87 317.218 1112.87 315.494V315.196C1112.87 311.451 1111.75 308.551 1109.53 306.496C1107.31 304.441 1104.12 303.413 1099.94 303.413C1095.53 303.413 1092.03 304.375 1089.45 306.297C1086.9 308.219 1085.17 310.49 1084.28 313.108L1067.47 310.722C1068.8 306.081 1070.99 302.204 1074.04 299.088C1077.09 295.939 1080.81 293.586 1085.22 292.028C1089.63 290.438 1094.5 289.642 1099.84 289.642C1103.52 289.642 1107.18 290.073 1110.83 290.935C1114.47 291.796 1117.8 293.222 1120.82 295.21C1123.84 297.166 1126.26 299.834 1128.08 303.214C1129.93 306.595 1130.86 310.821 1130.86 315.892V367H1113.56V356.51H1112.96C1111.87 358.631 1110.33 360.62 1108.34 362.476C1106.39 364.299 1103.92 365.774 1100.93 366.901C1097.98 367.994 1094.52 368.541 1090.54 368.541ZM1095.22 355.317C1098.83 355.317 1101.96 354.604 1104.61 353.179C1107.26 351.721 1109.3 349.798 1110.73 347.412C1112.19 345.026 1112.91 342.424 1112.91 339.607V330.608C1112.35 331.072 1111.39 331.503 1110.03 331.901C1108.71 332.298 1107.21 332.646 1105.56 332.945C1103.9 333.243 1102.26 333.508 1100.64 333.74C1099.01 333.972 1097.6 334.171 1096.41 334.337C1093.72 334.701 1091.32 335.298 1089.2 336.126C1087.08 336.955 1085.41 338.115 1084.18 339.607C1082.95 341.065 1082.34 342.954 1082.34 345.274C1082.34 348.589 1083.55 351.091 1085.97 352.781C1088.39 354.472 1091.47 355.317 1095.22 355.317Z"/>
</mask>
<path d="M642.331 367V265.182H660.776V311.964H662.018L701.741 265.182H724.263L684.888 310.871L724.611 367H702.437L672.061 323.349L660.776 336.673V367H642.331ZM777.856 368.541C773.017 368.541 768.659 367.679 764.781 365.956C760.936 364.199 757.887 361.614 755.633 358.2C753.412 354.786 752.302 350.577 752.302 345.572C752.302 341.264 753.097 337.701 754.688 334.884C756.279 332.066 758.45 329.812 761.201 328.122C763.952 326.432 767.051 325.156 770.498 324.294C773.978 323.399 777.574 322.753 781.286 322.355C785.761 321.891 789.39 321.477 792.174 321.112C794.958 320.714 796.98 320.118 798.239 319.322C799.532 318.494 800.178 317.218 800.178 315.494V315.196C800.178 311.451 799.068 308.551 796.847 306.496C794.627 304.441 791.428 303.413 787.252 303.413C782.844 303.413 779.347 304.375 776.762 306.297C774.21 308.219 772.487 310.49 771.592 313.108L754.788 310.722C756.114 306.081 758.301 302.204 761.35 299.088C764.4 295.939 768.128 293.586 772.536 292.028C776.945 290.438 781.817 289.642 787.153 289.642C790.832 289.642 794.494 290.073 798.14 290.935C801.786 291.796 805.117 293.222 808.133 295.21C811.149 297.166 813.569 299.834 815.391 303.214C817.248 306.595 818.176 310.821 818.176 315.892V367H800.874V356.51H800.278C799.184 358.631 797.643 360.62 795.654 362.476C793.699 364.299 791.23 365.774 788.247 366.901C785.297 367.994 781.833 368.541 777.856 368.541ZM782.529 355.317C786.142 355.317 789.274 354.604 791.926 353.179C794.577 351.721 796.615 349.798 798.041 347.412C799.499 345.026 800.228 342.424 800.228 339.607V330.608C799.665 331.072 798.703 331.503 797.345 331.901C796.019 332.298 794.527 332.646 792.87 332.945C791.213 333.243 789.572 333.508 787.948 333.74C786.324 333.972 784.916 334.171 783.722 334.337C781.038 334.701 778.635 335.298 776.514 336.126C774.392 336.955 772.719 338.115 771.492 339.607C770.266 341.065 769.653 342.954 769.653 345.274C769.653 348.589 770.863 351.091 773.282 352.781C775.702 354.472 778.784 355.317 782.529 355.317ZM873.869 322.256V367H855.872V290.636H873.074V303.612H873.969C875.725 299.337 878.526 295.939 882.371 293.42C886.249 290.902 891.038 289.642 896.739 289.642C902.009 289.642 906.599 290.769 910.51 293.023C914.454 295.277 917.503 298.541 919.658 302.817C921.845 307.092 922.922 312.279 922.889 318.378V367H904.892V321.162C904.892 316.058 903.566 312.064 900.915 309.18C898.296 306.297 894.667 304.855 890.027 304.855C886.878 304.855 884.078 305.551 881.625 306.943C879.205 308.302 877.3 310.274 875.908 312.859C874.549 315.445 873.869 318.577 873.869 322.256ZM961.58 367V265.182H979.577V303.264H980.323C981.251 301.408 982.56 299.436 984.251 297.348C985.941 295.227 988.228 293.42 991.111 291.929C993.995 290.404 997.674 289.642 1002.15 289.642C1008.05 289.642 1013.37 291.15 1018.11 294.166C1022.88 297.149 1026.66 301.574 1029.44 307.44C1032.26 313.274 1033.67 320.433 1033.67 328.918C1033.67 337.303 1032.29 344.429 1029.54 350.295C1026.79 356.162 1023.05 360.636 1018.31 363.719C1013.57 366.801 1008.2 368.342 1002.2 368.342C997.823 368.342 994.194 367.613 991.31 366.155C988.427 364.696 986.107 362.94 984.35 360.885C982.626 358.797 981.284 356.825 980.323 354.969H979.279V367H961.58ZM979.229 328.818C979.229 333.757 979.925 338.082 981.317 341.794C982.742 345.506 984.781 348.406 987.432 350.494C990.117 352.549 993.365 353.577 997.177 353.577C1001.15 353.577 1004.48 352.516 1007.17 350.395C1009.85 348.241 1011.88 345.307 1013.23 341.595C1014.63 337.85 1015.32 333.591 1015.32 328.818C1015.32 324.079 1014.64 319.869 1013.28 316.19C1011.93 312.511 1009.9 309.628 1007.22 307.54C1004.53 305.452 1001.19 304.408 997.177 304.408C993.332 304.408 990.067 305.419 987.383 307.44C984.698 309.462 982.66 312.296 981.268 315.942C979.909 319.588 979.229 323.88 979.229 328.818ZM1090.54 368.541C1085.7 368.541 1081.35 367.679 1077.47 365.956C1073.62 364.199 1070.57 361.614 1068.32 358.2C1066.1 354.786 1064.99 350.577 1064.99 345.572C1064.99 341.264 1065.78 337.701 1067.38 334.884C1068.97 332.066 1071.14 329.812 1073.89 328.122C1076.64 326.432 1079.74 325.156 1083.18 324.294C1086.66 323.399 1090.26 322.753 1093.97 322.355C1098.45 321.891 1102.08 321.477 1104.86 321.112C1107.64 320.714 1109.67 320.118 1110.93 319.322C1112.22 318.494 1112.87 317.218 1112.87 315.494V315.196C1112.87 311.451 1111.75 308.551 1109.53 306.496C1107.31 304.441 1104.12 303.413 1099.94 303.413C1095.53 303.413 1092.03 304.375 1089.45 306.297C1086.9 308.219 1085.17 310.49 1084.28 313.108L1067.47 310.722C1068.8 306.081 1070.99 302.204 1074.04 299.088C1077.09 295.939 1080.81 293.586 1085.22 292.028C1089.63 290.438 1094.5 289.642 1099.84 289.642C1103.52 289.642 1107.18 290.073 1110.83 290.935C1114.47 291.796 1117.8 293.222 1120.82 295.21C1123.84 297.166 1126.26 299.834 1128.08 303.214C1129.93 306.595 1130.86 310.821 1130.86 315.892V367H1113.56V356.51H1112.96C1111.87 358.631 1110.33 360.62 1108.34 362.476C1106.39 364.299 1103.92 365.774 1100.93 366.901C1097.98 367.994 1094.52 368.541 1090.54 368.541ZM1095.22 355.317C1098.83 355.317 1101.96 354.604 1104.61 353.179C1107.26 351.721 1109.3 349.798 1110.73 347.412C1112.19 345.026 1112.91 342.424 1112.91 339.607V330.608C1112.35 331.072 1111.39 331.503 1110.03 331.901C1108.71 332.298 1107.21 332.646 1105.56 332.945C1103.9 333.243 1102.26 333.508 1100.64 333.74C1099.01 333.972 1097.6 334.171 1096.41 334.337C1093.72 334.701 1091.32 335.298 1089.2 336.126C1087.08 336.955 1085.41 338.115 1084.18 339.607C1082.95 341.065 1082.34 342.954 1082.34 345.274C1082.34 348.589 1083.55 351.091 1085.97 352.781C1088.39 354.472 1091.47 355.317 1095.22 355.317Z" fill="white"/>
<path d="M642.331 367H639.331V370H642.331V367ZM642.331 265.182V262.182H639.331V265.182H642.331ZM660.776 265.182H663.776V262.182H660.776V265.182ZM660.776 311.964H657.776V314.964H660.776V311.964ZM662.018 311.964V314.964H663.407L664.305 313.906L662.018 311.964ZM701.741 265.182V262.182H700.353L699.455 263.24L701.741 265.182ZM724.263 265.182L726.535 267.14L730.808 262.182H724.263V265.182ZM684.888 310.871L682.615 308.912L681.084 310.689L682.439 312.604L684.888 310.871ZM724.611 367V370H730.409L727.06 365.267L724.611 367ZM702.437 367L699.975 368.714L700.87 370H702.437V367ZM672.061 323.349L674.523 321.636L672.294 318.432L669.772 321.41L672.061 323.349ZM660.776 336.673L658.486 334.734L657.776 335.574V336.673H660.776ZM660.776 367V370H663.776V367H660.776ZM642.331 367H645.331V265.182H642.331H639.331V367H642.331ZM642.331 265.182V268.182H660.776V265.182V262.182H642.331V265.182ZM660.776 265.182H657.776V311.964H660.776H663.776V265.182H660.776ZM660.776 311.964V314.964H662.018V311.964V308.964H660.776V311.964ZM662.018 311.964L664.305 313.906L704.028 267.124L701.741 265.182L699.455 263.24L659.732 310.023L662.018 311.964ZM701.741 265.182V268.182H724.263V265.182V262.182H701.741V265.182ZM724.263 265.182L721.99 263.223L682.615 308.912L684.888 310.871L687.16 312.829L726.535 267.14L724.263 265.182ZM684.888 310.871L682.439 312.604L722.162 368.733L724.611 367L727.06 365.267L687.337 309.138L684.888 310.871ZM724.611 367V364H702.437V367V370H724.611V367ZM702.437 367L704.9 365.286L674.523 321.636L672.061 323.349L669.599 325.063L699.975 368.714L702.437 367ZM672.061 323.349L669.772 321.41L658.486 334.734L660.776 336.673L663.065 338.612L674.35 325.288L672.061 323.349ZM660.776 336.673H657.776V367H660.776H663.776V336.673H660.776ZM660.776 367V364H642.331V367V370H660.776V367ZM764.781 365.956L763.534 368.685L763.548 368.691L763.562 368.697L764.781 365.956ZM755.633 358.2L753.118 359.836L753.124 359.845L753.129 359.853L755.633 358.2ZM754.688 334.884L752.076 333.408L752.076 333.408L754.688 334.884ZM761.201 328.122L759.631 325.566L759.631 325.566L761.201 328.122ZM770.498 324.294L771.226 327.204L771.235 327.202L771.245 327.2L770.498 324.294ZM781.286 322.355L780.977 319.371L780.967 319.372L781.286 322.355ZM792.174 321.112L792.564 324.087L792.581 324.085L792.598 324.082L792.174 321.112ZM798.239 319.322L799.841 321.859L799.85 321.854L799.858 321.848L798.239 319.322ZM796.847 306.496L798.885 304.294L798.885 304.294L796.847 306.496ZM776.762 306.297L774.972 303.889L774.965 303.895L774.957 303.901L776.762 306.297ZM771.592 313.108L771.17 316.078L773.628 316.427L774.431 314.078L771.592 313.108ZM754.788 310.722L751.903 309.897L750.957 313.208L754.366 313.692L754.788 310.722ZM761.35 299.088L763.494 301.186L763.5 301.181L763.505 301.175L761.35 299.088ZM772.536 292.028L773.536 294.857L773.545 294.854L773.555 294.85L772.536 292.028ZM808.133 295.21L806.482 297.715L806.491 297.721L806.501 297.727L808.133 295.21ZM815.391 303.214L812.751 304.638L812.756 304.648L812.762 304.658L815.391 303.214ZM818.176 367V370H821.176V367H818.176ZM800.874 367H797.874V370H800.874V367ZM800.874 356.51H803.874V353.51H800.874V356.51ZM800.278 356.51V353.51H798.449L797.611 355.135L800.278 356.51ZM795.654 362.476L797.7 364.67L797.701 364.669L795.654 362.476ZM788.247 366.901L789.29 369.713L789.298 369.71L789.307 369.707L788.247 366.901ZM791.926 353.179L793.346 355.821L793.359 355.815L793.371 355.808L791.926 353.179ZM798.041 347.412L795.481 345.848L795.473 345.861L795.465 345.874L798.041 347.412ZM800.228 330.608H803.228V324.251L798.321 328.292L800.228 330.608ZM797.345 331.901L796.502 329.021L796.492 329.024L796.483 329.027L797.345 331.901ZM792.87 332.945L793.402 335.897L793.402 335.897L792.87 332.945ZM783.722 334.337L784.126 337.309L784.135 337.308L783.722 334.337ZM776.514 336.126L775.422 333.332L775.422 333.332L776.514 336.126ZM771.492 339.607L773.788 341.537L773.799 341.525L773.81 341.512L771.492 339.607ZM773.282 352.781L771.564 355.241L771.564 355.241L773.282 352.781ZM777.856 368.541V365.541C773.378 365.541 769.443 364.745 765.999 363.215L764.781 365.956L763.562 368.697C767.874 370.614 772.656 371.541 777.856 371.541V368.541ZM764.781 365.956L766.027 363.227C762.676 361.696 760.07 359.476 758.137 356.547L755.633 358.2L753.129 359.853C755.704 363.752 759.196 366.703 763.534 368.685L764.781 365.956ZM755.633 358.2L758.148 356.564C756.309 353.738 755.302 350.13 755.302 345.572H752.302H749.302C749.302 351.024 750.515 355.834 753.118 359.836L755.633 358.2ZM752.302 345.572H755.302C755.302 341.615 756.034 338.601 757.301 336.359L754.688 334.884L752.076 333.408C750.16 336.801 749.302 340.912 749.302 345.572H752.302ZM754.688 334.884L757.301 336.359C758.642 333.983 760.455 332.102 762.772 330.678L761.201 328.122L759.631 325.566C756.445 327.523 753.916 330.149 752.076 333.408L754.688 334.884ZM761.201 328.122L762.772 330.678C765.237 329.164 768.046 327.999 771.226 327.204L770.498 324.294L769.77 321.384C766.056 322.312 762.668 323.7 759.631 325.566L761.201 328.122ZM770.498 324.294L771.245 327.2C774.579 326.342 778.032 325.721 781.606 325.338L781.286 322.355L780.967 319.372C777.116 319.785 773.377 320.456 769.751 321.389L770.498 324.294ZM781.286 322.355L781.596 325.339C786.083 324.874 789.742 324.456 792.564 324.087L792.174 321.112L791.785 318.138C789.038 318.497 785.438 318.908 780.977 319.371L781.286 322.355ZM792.174 321.112L792.598 324.082C795.495 323.668 798.032 323.002 799.841 321.859L798.239 319.322L796.638 316.786C795.928 317.234 794.422 317.761 791.75 318.142L792.174 321.112ZM798.239 319.322L799.858 321.848C802.129 320.392 803.178 318.092 803.178 315.494H800.178H797.178C797.178 316.344 796.935 316.595 796.62 316.797L798.239 319.322ZM800.178 315.494H803.178V315.196H800.178H797.178V315.494H800.178ZM800.178 315.196H803.178C803.178 310.828 801.86 307.047 798.885 304.294L796.847 306.496L794.81 308.698C796.276 310.054 797.178 312.073 797.178 315.196H800.178ZM796.847 306.496L798.885 304.294C795.929 301.558 791.894 300.413 787.252 300.413V303.413V306.413C790.963 306.413 793.325 307.323 794.81 308.698L796.847 306.496ZM787.252 303.413V300.413C782.433 300.413 778.235 301.463 774.972 303.889L776.762 306.297L778.552 308.704C780.46 307.286 783.256 306.413 787.252 306.413V303.413ZM776.762 306.297L774.957 303.901C772.002 306.127 769.871 308.867 768.753 312.138L771.592 313.108L774.431 314.078C775.103 312.112 776.418 310.312 778.567 308.693L776.762 306.297ZM771.592 313.108L772.014 310.138L755.21 307.751L754.788 310.722L754.366 313.692L771.17 316.078L771.592 313.108ZM754.788 310.722L757.672 311.546C758.876 307.333 760.83 303.908 763.494 301.186L761.35 299.088L759.206 296.99C755.772 300.499 753.351 304.83 751.903 309.897L754.788 310.722ZM761.35 299.088L763.505 301.175C766.211 298.382 769.535 296.271 773.536 294.857L772.536 292.028L771.537 289.2C766.721 290.902 762.588 293.497 759.195 297.001L761.35 299.088ZM772.536 292.028L773.555 294.85C777.594 293.392 782.116 292.642 787.153 292.642V289.642V286.642C781.517 286.642 776.295 287.483 771.518 289.207L772.536 292.028ZM787.153 289.642V292.642C790.595 292.642 794.026 293.045 797.45 293.854L798.14 290.935L798.83 288.015C794.962 287.101 791.068 286.642 787.153 286.642V289.642ZM798.14 290.935L797.45 293.854C800.766 294.638 803.77 295.927 806.482 297.715L808.133 295.21L809.784 292.706C806.464 290.516 802.805 288.955 798.83 288.015L798.14 290.935ZM808.133 295.21L806.501 297.727C809.065 299.39 811.15 301.67 812.751 304.638L815.391 303.214L818.032 301.791C815.987 297.998 813.233 294.941 809.765 292.693L808.133 295.21ZM815.391 303.214L812.762 304.658C814.31 307.479 815.176 311.172 815.176 315.892H818.176H821.176C821.176 310.47 820.185 305.711 818.021 301.771L815.391 303.214ZM818.176 315.892H815.176V367H818.176H821.176V315.892H818.176ZM818.176 367V364H800.874V367V370H818.176V367ZM800.874 367H803.874V356.51H800.874H797.874V367H800.874ZM800.874 356.51V353.51H800.278V356.51V359.51H800.874V356.51ZM800.278 356.51L797.611 355.135C796.696 356.91 795.379 358.629 793.607 360.283L795.654 362.476L797.701 364.669C799.907 362.61 801.672 360.352 802.944 357.885L800.278 356.51ZM795.654 362.476L793.609 360.281C791.988 361.792 789.873 363.079 787.186 364.094L788.247 366.901L789.307 369.707C792.586 368.468 795.409 366.805 797.7 364.67L795.654 362.476ZM788.247 366.901L787.204 364.088C784.663 365.03 781.567 365.541 777.856 365.541V368.541V371.541C782.099 371.541 785.931 370.959 789.29 369.713L788.247 366.901ZM782.529 355.317V358.317C786.539 358.317 790.178 357.524 793.346 355.821L791.926 353.179L790.505 350.537C788.37 351.684 785.745 352.317 782.529 352.317V355.317ZM791.926 353.179L793.371 355.808C796.447 354.116 798.894 351.834 800.616 348.95L798.041 347.412L795.465 345.874C794.337 347.763 792.707 349.325 790.48 350.55L791.926 353.179ZM798.041 347.412L800.6 348.976C802.349 346.115 803.228 342.971 803.228 339.607H800.228H797.228C797.228 341.876 796.649 343.936 795.481 345.848L798.041 347.412ZM800.228 339.607H803.228V330.608H800.228H797.228V339.607H800.228ZM800.228 330.608L798.321 328.292C798.325 328.289 798.294 328.315 798.212 328.363C798.132 328.41 798.016 328.47 797.857 328.542C797.536 328.686 797.092 328.849 796.502 329.021L797.345 331.901L798.187 334.78C799.638 334.355 801.086 333.788 802.135 332.924L800.228 330.608ZM797.345 331.901L796.483 329.027C795.286 329.386 793.907 329.71 792.339 329.992L792.87 332.945L793.402 335.897C795.148 335.583 796.752 335.21 798.207 334.774L797.345 331.901ZM792.87 332.945L792.339 329.992C790.716 330.284 789.111 330.543 787.524 330.77L787.948 333.74L788.373 336.71C790.033 336.473 791.71 336.202 793.402 335.897L792.87 332.945ZM787.948 333.74L787.524 330.77C785.903 331.002 784.498 331.2 783.31 331.365L783.722 334.337L784.135 337.308C785.333 337.142 786.746 336.942 788.373 336.71L787.948 333.74ZM783.722 334.337L783.319 331.364C780.442 331.755 777.802 332.402 775.422 333.332L776.514 336.126L777.605 338.921C779.468 338.193 781.634 337.648 784.126 337.309L783.722 334.337ZM776.514 336.126L775.422 333.332C772.909 334.314 770.781 335.748 769.175 337.701L771.492 339.607L773.81 341.512C774.656 340.482 775.876 339.596 777.605 338.921L776.514 336.126ZM771.492 339.607L769.196 337.676C767.422 339.786 766.653 342.407 766.653 345.274H769.653H772.653C772.653 343.501 773.11 342.344 773.788 341.537L771.492 339.607ZM769.653 345.274H766.653C766.653 349.428 768.233 352.913 771.564 355.241L773.282 352.781L775 350.322C773.492 349.269 772.653 347.749 772.653 345.274H769.653ZM773.282 352.781L771.564 355.241C774.608 357.367 778.335 358.317 782.529 358.317V355.317V352.317C779.233 352.317 776.795 351.576 775 350.322L773.282 352.781ZM873.869 367V370H876.869V367H873.869ZM855.872 367H852.872V370H855.872V367ZM855.872 290.636V287.636H852.872V290.636H855.872ZM873.074 290.636H876.074V287.636H873.074V290.636ZM873.074 303.612H870.074V306.612H873.074V303.612ZM873.969 303.612V306.612H875.98L876.744 304.752L873.969 303.612ZM882.371 293.42L880.737 290.905L880.727 290.911L882.371 293.42ZM910.51 293.023L909.012 295.622L909.022 295.627L910.51 293.023ZM919.658 302.817L916.979 304.167L916.983 304.175L916.987 304.183L919.658 302.817ZM922.889 318.378L919.889 318.362L919.889 318.37V318.378H922.889ZM922.889 367V370H925.889V367H922.889ZM904.892 367H901.892V370H904.892V367ZM900.915 309.18L898.694 311.197L898.7 311.204L898.706 311.211L900.915 309.18ZM881.625 306.943L883.094 309.559L883.106 309.552L881.625 306.943ZM875.908 312.859L873.266 311.437L873.259 311.45L873.252 311.464L875.908 312.859ZM873.869 322.256H870.869V367H873.869H876.869V322.256H873.869ZM873.869 367V364H855.872V367V370H873.869V367ZM855.872 367H858.872V290.636H855.872H852.872V367H855.872ZM855.872 290.636V293.636H873.074V290.636V287.636H855.872V290.636ZM873.074 290.636H870.074V303.612H873.074H876.074V290.636H873.074ZM873.074 303.612V306.612H873.969V303.612V300.612H873.074V303.612ZM873.969 303.612L876.744 304.752C878.272 301.033 880.68 298.115 884.015 295.93L882.371 293.42L880.727 290.911C876.372 293.764 873.179 297.64 871.194 302.472L873.969 303.612ZM882.371 293.42L884.005 295.936C887.294 293.8 891.482 292.642 896.739 292.642V289.642V286.642C890.593 286.642 885.203 288.003 880.737 290.905L882.371 293.42ZM896.739 289.642V292.642C901.572 292.642 905.628 293.672 909.012 295.622L910.51 293.023L912.008 290.423C907.57 287.866 902.445 286.642 896.739 286.642V289.642ZM910.51 293.023L909.022 295.627C912.426 297.573 915.074 300.387 916.979 304.167L919.658 302.817L922.337 301.467C919.932 296.695 916.482 292.98 911.998 290.418L910.51 293.023ZM919.658 302.817L916.987 304.183C918.904 307.931 919.92 312.617 919.889 318.362L922.889 318.378L925.889 318.394C925.924 311.941 924.786 306.254 922.328 301.45L919.658 302.817ZM922.889 318.378H919.889V367H922.889H925.889V318.378H922.889ZM922.889 367V364H904.892V367V370H922.889V367ZM904.892 367H907.892V321.162H904.892H901.892V367H904.892ZM904.892 321.162H907.892C907.892 315.54 906.423 310.738 903.123 307.15L900.915 309.18L898.706 311.211C900.71 313.39 901.892 316.576 901.892 321.162H904.892ZM900.915 309.18L903.136 307.164C899.84 303.534 895.337 301.855 890.027 301.855V304.855V307.855C893.998 307.855 896.753 309.059 898.694 311.197L900.915 309.18ZM890.027 304.855V301.855C886.421 301.855 883.099 302.657 880.144 304.334L881.625 306.943L883.106 309.552C885.056 308.445 887.336 307.855 890.027 307.855V304.855ZM881.625 306.943L880.156 304.327C877.211 305.981 874.912 308.381 873.266 311.437L875.908 312.859L878.549 314.282C879.688 312.167 881.2 310.623 883.094 309.559L881.625 306.943ZM875.908 312.859L873.252 311.464C871.616 314.577 870.869 318.214 870.869 322.256H873.869H876.869C876.869 318.94 877.482 316.313 878.563 314.255L875.908 312.859ZM961.58 367H958.58V370H961.58V367ZM961.58 265.182V262.182H958.58V265.182H961.58ZM979.577 265.182H982.577V262.182H979.577V265.182ZM979.577 303.264H976.577V306.264H979.577V303.264ZM980.323 303.264V306.264H982.177L983.006 304.606L980.323 303.264ZM984.251 297.348L986.582 299.236L986.59 299.227L986.597 299.218L984.251 297.348ZM991.111 291.929L992.49 294.594L992.502 294.587L992.514 294.581L991.111 291.929ZM1018.11 294.166L1016.5 296.697L1016.51 296.704L1016.52 296.71L1018.11 294.166ZM1029.44 307.44L1026.73 308.727L1026.74 308.736L1026.74 308.745L1029.44 307.44ZM1029.54 350.295L1026.83 349.022L1026.83 349.022L1029.54 350.295ZM1018.31 363.719L1019.94 366.234L1019.94 366.234L1018.31 363.719ZM991.31 366.155L989.956 368.832L989.956 368.832L991.31 366.155ZM984.35 360.885L982.036 362.795L982.053 362.815L982.07 362.834L984.35 360.885ZM980.323 354.969L982.987 353.589L982.148 351.969H980.323V354.969ZM979.279 354.969V351.969H976.279V354.969H979.279ZM979.279 367V370H982.279V367H979.279ZM981.317 341.794L978.508 342.847L978.512 342.858L978.517 342.869L981.317 341.794ZM987.432 350.494L985.576 352.851L985.593 352.864L985.609 352.877L987.432 350.494ZM1007.17 350.395L1009.03 352.749L1009.04 352.742L1009.05 352.735L1007.17 350.395ZM1013.23 341.595L1010.42 340.55L1010.42 340.557L1010.42 340.564L1013.23 341.595ZM1013.28 316.19L1016.1 315.151L1016.1 315.151L1013.28 316.19ZM1007.22 307.54L1009.06 305.172L1009.06 305.172L1007.22 307.54ZM987.383 307.44L985.578 305.044L985.578 305.044L987.383 307.44ZM981.268 315.942L978.465 314.872L978.461 314.883L978.457 314.894L981.268 315.942ZM961.58 367H964.58V265.182H961.58H958.58V367H961.58ZM961.58 265.182V268.182H979.577V265.182V262.182H961.58V265.182ZM979.577 265.182H976.577V303.264H979.577H982.577V265.182H979.577ZM979.577 303.264V306.264H980.323V303.264V300.264H979.577V303.264ZM980.323 303.264L983.006 304.606C983.814 302.991 984.991 301.201 986.582 299.236L984.251 297.348L981.919 295.46C980.13 297.671 978.688 299.825 977.64 301.923L980.323 303.264ZM984.251 297.348L986.597 299.218C987.977 297.485 989.908 295.929 992.49 294.594L991.111 291.929L989.733 289.264C986.547 290.912 983.904 292.969 981.904 295.478L984.251 297.348ZM991.111 291.929L992.514 294.581C994.835 293.354 997.99 292.642 1002.15 292.642V289.642V286.642C997.358 286.642 993.155 287.455 989.709 289.277L991.111 291.929ZM1002.15 289.642V292.642C1007.51 292.642 1012.26 294.003 1016.5 296.697L1018.11 294.166L1019.72 291.635C1014.47 288.297 1008.59 286.642 1002.15 286.642V289.642ZM1018.11 294.166L1016.52 296.71C1020.73 299.345 1024.15 303.296 1026.73 308.727L1029.44 307.44L1032.15 306.154C1029.16 299.851 1025.03 294.953 1019.7 291.622L1018.11 294.166ZM1029.44 307.44L1026.74 308.745C1029.31 314.066 1030.67 320.75 1030.67 328.918H1033.67H1036.67C1036.67 320.115 1035.21 312.482 1032.14 306.136L1029.44 307.44ZM1033.67 328.918H1030.67C1030.67 336.987 1029.34 343.653 1026.83 349.022L1029.54 350.295L1032.26 351.569C1035.24 345.205 1036.67 337.619 1036.67 328.918H1033.67ZM1029.54 350.295L1026.83 349.022C1024.28 354.457 1020.88 358.469 1016.67 361.204L1018.31 363.719L1019.94 366.234C1025.22 362.804 1029.3 357.866 1032.26 351.569L1029.54 350.295ZM1018.31 363.719L1016.67 361.204C1012.45 363.95 1007.65 365.342 1002.2 365.342V368.342V371.342C1008.74 371.342 1014.68 369.652 1019.94 366.234L1018.31 363.719ZM1002.2 368.342V365.342C998.135 365.342 995.006 364.662 992.664 363.478L991.31 366.155L989.956 368.832C993.381 370.564 997.511 371.342 1002.2 371.342V368.342ZM991.31 366.155L992.664 363.478C990.067 362.164 988.084 360.636 986.63 358.936L984.35 360.885L982.07 362.834C984.129 365.243 986.787 367.229 989.956 368.832L991.31 366.155ZM984.35 360.885L986.664 358.975C985.038 357.006 983.827 355.211 982.987 353.589L980.323 354.969L977.659 356.348C978.742 358.439 980.215 360.588 982.036 362.795L984.35 360.885ZM980.323 354.969V351.969H979.279V354.969V357.969H980.323V354.969ZM979.279 354.969H976.279V367H979.279H982.279V354.969H979.279ZM979.279 367V364H961.58V367V370H979.279V367ZM979.229 328.818H976.229C976.229 334.031 976.963 338.727 978.508 342.847L981.317 341.794L984.126 340.741C982.887 337.437 982.229 333.482 982.229 328.818H979.229ZM981.317 341.794L978.517 342.869C980.101 346.995 982.43 350.373 985.576 352.851L987.432 350.494L989.288 348.137C987.132 346.439 985.384 344.017 984.118 340.719L981.317 341.794ZM987.432 350.494L985.609 352.877C988.883 355.383 992.794 356.577 997.177 356.577V353.577V350.577C993.936 350.577 991.351 349.716 989.256 348.112L987.432 350.494ZM997.177 353.577V356.577C1001.71 356.577 1005.73 355.354 1009.03 352.749L1007.17 350.395L1005.31 348.041C1003.24 349.678 1000.59 350.577 997.177 350.577V353.577ZM1007.17 350.395L1009.05 352.735C1012.22 350.19 1014.53 346.775 1016.05 342.626L1013.23 341.595L1010.42 340.564C1009.22 343.84 1007.49 346.291 1005.29 348.055L1007.17 350.395ZM1013.23 341.595L1016.05 342.64C1017.58 338.503 1018.32 333.88 1018.32 328.818H1015.32H1012.32C1012.32 333.302 1011.67 337.197 1010.42 340.55L1013.23 341.595ZM1015.32 328.818H1018.32C1018.32 323.796 1017.6 319.224 1016.1 315.151L1013.28 316.19L1010.47 317.23C1011.68 320.515 1012.32 324.362 1012.32 328.818H1015.32ZM1013.28 316.19L1016.1 315.151C1014.58 311.029 1012.25 307.653 1009.06 305.172L1007.22 307.54L1005.38 309.908C1007.56 311.602 1009.28 313.994 1010.47 317.23L1013.28 316.19ZM1007.22 307.54L1009.06 305.172C1005.76 302.604 1001.73 301.408 997.177 301.408V304.408V307.408C1000.64 307.408 1003.31 308.3 1005.38 309.908L1007.22 307.54ZM997.177 304.408V301.408C992.779 301.408 988.856 302.575 985.578 305.044L987.383 307.44L989.187 309.837C991.279 308.262 993.885 307.408 997.177 307.408V304.408ZM987.383 307.44L985.578 305.044C982.374 307.457 980.025 310.785 978.465 314.872L981.268 315.942L984.07 317.012C985.294 313.807 987.022 311.467 989.187 309.837L987.383 307.44ZM981.268 315.942L978.457 314.894C976.944 318.952 976.229 323.614 976.229 328.818H979.229H982.229C982.229 324.145 982.873 320.224 984.079 316.99L981.268 315.942ZM1077.47 365.956L1076.22 368.685L1076.23 368.691L1076.25 368.697L1077.47 365.956ZM1068.32 358.2L1065.8 359.836L1065.81 359.845L1065.82 359.853L1068.32 358.2ZM1067.38 334.884L1064.76 333.408L1064.76 333.408L1067.38 334.884ZM1073.89 328.122L1072.32 325.566L1072.32 325.566L1073.89 328.122ZM1083.18 324.294L1083.91 327.204L1083.92 327.202L1083.93 327.2L1083.18 324.294ZM1093.97 322.355L1093.66 319.371L1093.65 319.372L1093.97 322.355ZM1104.86 321.112L1105.25 324.087L1105.27 324.085L1105.29 324.082L1104.86 321.112ZM1110.93 319.322L1112.53 321.859L1112.54 321.854L1112.55 321.848L1110.93 319.322ZM1109.53 306.496L1111.57 304.294L1111.57 304.294L1109.53 306.496ZM1089.45 306.297L1087.66 303.889L1087.65 303.895L1087.64 303.901L1089.45 306.297ZM1084.28 313.108L1083.86 316.078L1086.31 316.427L1087.12 314.078L1084.28 313.108ZM1067.47 310.722L1064.59 309.897L1063.64 313.208L1067.05 313.692L1067.47 310.722ZM1074.04 299.088L1076.18 301.186L1076.19 301.181L1076.19 301.175L1074.04 299.088ZM1085.22 292.028L1086.22 294.857L1086.23 294.854L1086.24 294.85L1085.22 292.028ZM1120.82 295.21L1119.17 297.715L1119.18 297.721L1119.19 297.727L1120.82 295.21ZM1128.08 303.214L1125.44 304.638L1125.44 304.648L1125.45 304.658L1128.08 303.214ZM1130.86 367V370H1133.86V367H1130.86ZM1113.56 367H1110.56V370H1113.56V367ZM1113.56 356.51H1116.56V353.51H1113.56V356.51ZM1112.96 356.51V353.51H1111.14L1110.3 355.135L1112.96 356.51ZM1108.34 362.476L1110.39 364.67L1110.39 364.669L1108.34 362.476ZM1100.93 366.901L1101.98 369.713L1101.98 369.71L1101.99 369.707L1100.93 366.901ZM1104.61 353.179L1106.03 355.821L1106.05 355.815L1106.06 355.808L1104.61 353.179ZM1110.73 347.412L1108.17 345.848L1108.16 345.861L1108.15 345.874L1110.73 347.412ZM1112.91 330.608H1115.91V324.251L1111.01 328.292L1112.91 330.608ZM1110.03 331.901L1109.19 329.021L1109.18 329.024L1109.17 329.027L1110.03 331.901ZM1105.56 332.945L1106.09 335.897L1106.09 335.897L1105.56 332.945ZM1096.41 334.337L1096.81 337.309L1096.82 337.308L1096.41 334.337ZM1089.2 336.126L1088.11 333.332L1088.11 333.332L1089.2 336.126ZM1084.18 339.607L1086.48 341.537L1086.49 341.525L1086.5 341.512L1084.18 339.607ZM1085.97 352.781L1084.25 355.241L1084.25 355.241L1085.97 352.781ZM1090.54 368.541V365.541C1086.06 365.541 1082.13 364.745 1078.69 363.215L1077.47 365.956L1076.25 368.697C1080.56 370.614 1085.34 371.541 1090.54 371.541V368.541ZM1077.47 365.956L1078.71 363.227C1075.36 361.696 1072.76 359.476 1070.82 356.547L1068.32 358.2L1065.82 359.853C1068.39 363.752 1071.88 366.703 1076.22 368.685L1077.47 365.956ZM1068.32 358.2L1070.83 356.564C1069 353.738 1067.99 350.13 1067.99 345.572H1064.99H1061.99C1061.99 351.024 1063.2 355.834 1065.8 359.836L1068.32 358.2ZM1064.99 345.572H1067.99C1067.99 341.615 1068.72 338.601 1069.99 336.359L1067.38 334.884L1064.76 333.408C1062.85 336.801 1061.99 340.912 1061.99 345.572H1064.99ZM1067.38 334.884L1069.99 336.359C1071.33 333.983 1073.14 332.102 1075.46 330.678L1073.89 328.122L1072.32 325.566C1069.13 327.523 1066.6 330.149 1064.76 333.408L1067.38 334.884ZM1073.89 328.122L1075.46 330.678C1077.92 329.164 1080.73 327.999 1083.91 327.204L1083.18 324.294L1082.46 321.384C1078.74 322.312 1075.35 323.7 1072.32 325.566L1073.89 328.122ZM1083.18 324.294L1083.93 327.2C1087.27 326.342 1090.72 325.721 1094.29 325.338L1093.97 322.355L1093.65 319.372C1089.8 319.785 1086.06 320.456 1082.44 321.389L1083.18 324.294ZM1093.97 322.355L1094.28 325.339C1098.77 324.874 1102.43 324.456 1105.25 324.087L1104.86 321.112L1104.47 318.138C1101.72 318.497 1098.13 318.908 1093.66 319.371L1093.97 322.355ZM1104.86 321.112L1105.29 324.082C1108.18 323.668 1110.72 323.002 1112.53 321.859L1110.93 319.322L1109.32 316.786C1108.61 317.234 1107.11 317.761 1104.44 318.142L1104.86 321.112ZM1110.93 319.322L1112.55 321.848C1114.82 320.392 1115.87 318.092 1115.87 315.494H1112.87H1109.87C1109.87 316.344 1109.62 316.595 1109.31 316.797L1110.93 319.322ZM1112.87 315.494H1115.87V315.196H1112.87H1109.87V315.494H1112.87ZM1112.87 315.196H1115.87C1115.87 310.828 1114.55 307.047 1111.57 304.294L1109.53 306.496L1107.5 308.698C1108.96 310.054 1109.87 312.073 1109.87 315.196H1112.87ZM1109.53 306.496L1111.57 304.294C1108.62 301.558 1104.58 300.413 1099.94 300.413V303.413V306.413C1103.65 306.413 1106.01 307.323 1107.5 308.698L1109.53 306.496ZM1099.94 303.413V300.413C1095.12 300.413 1090.92 301.463 1087.66 303.889L1089.45 306.297L1091.24 308.704C1093.15 307.286 1095.94 306.413 1099.94 306.413V303.413ZM1089.45 306.297L1087.64 303.901C1084.69 306.127 1082.56 308.867 1081.44 312.138L1084.28 313.108L1087.12 314.078C1087.79 312.112 1089.11 310.312 1091.25 308.693L1089.45 306.297ZM1084.28 313.108L1084.7 310.138L1067.9 307.751L1067.47 310.722L1067.05 313.692L1083.86 316.078L1084.28 313.108ZM1067.47 310.722L1070.36 311.546C1071.56 307.333 1073.52 303.908 1076.18 301.186L1074.04 299.088L1071.89 296.99C1068.46 300.499 1066.04 304.83 1064.59 309.897L1067.47 310.722ZM1074.04 299.088L1076.19 301.175C1078.9 298.382 1082.22 296.271 1086.22 294.857L1085.22 292.028L1084.22 289.2C1079.41 290.902 1075.28 293.497 1071.88 297.001L1074.04 299.088ZM1085.22 292.028L1086.24 294.85C1090.28 293.392 1094.8 292.642 1099.84 292.642V289.642V286.642C1094.2 286.642 1088.98 287.483 1084.2 289.207L1085.22 292.028ZM1099.84 289.642V292.642C1103.28 292.642 1106.71 293.045 1110.14 293.854L1110.83 290.935L1111.52 288.015C1107.65 287.101 1103.76 286.642 1099.84 286.642V289.642ZM1110.83 290.935L1110.14 293.854C1113.45 294.638 1116.46 295.927 1119.17 297.715L1120.82 295.21L1122.47 292.706C1119.15 290.516 1115.49 288.955 1111.52 288.015L1110.83 290.935ZM1120.82 295.21L1119.19 297.727C1121.75 299.39 1123.84 301.67 1125.44 304.638L1128.08 303.214L1130.72 301.791C1128.67 297.998 1125.92 294.941 1122.45 292.693L1120.82 295.21ZM1128.08 303.214L1125.45 304.658C1127 307.479 1127.86 311.172 1127.86 315.892H1130.86H1133.86C1133.86 310.47 1132.87 305.711 1130.71 301.771L1128.08 303.214ZM1130.86 315.892H1127.86V367H1130.86H1133.86V315.892H1130.86ZM1130.86 367V364H1113.56V367V370H1130.86V367ZM1113.56 367H1116.56V356.51H1113.56H1110.56V367H1113.56ZM1113.56 356.51V353.51H1112.96V356.51V359.51H1113.56V356.51ZM1112.96 356.51L1110.3 355.135C1109.38 356.91 1108.07 358.629 1106.29 360.283L1108.34 362.476L1110.39 364.669C1112.59 362.61 1114.36 360.352 1115.63 357.885L1112.96 356.51ZM1108.34 362.476L1106.3 360.281C1104.67 361.792 1102.56 363.079 1099.87 364.094L1100.93 366.901L1101.99 369.707C1105.27 368.468 1108.1 366.805 1110.39 364.67L1108.34 362.476ZM1100.93 366.901L1099.89 364.088C1097.35 365.03 1094.25 365.541 1090.54 365.541V368.541V371.541C1094.79 371.541 1098.62 370.959 1101.98 369.713L1100.93 366.901ZM1095.22 355.317V358.317C1099.23 358.317 1102.87 357.524 1106.03 355.821L1104.61 353.179L1103.19 350.537C1101.06 351.684 1098.43 352.317 1095.22 352.317V355.317ZM1104.61 353.179L1106.06 355.808C1109.13 354.116 1111.58 351.834 1113.3 348.95L1110.73 347.412L1108.15 345.874C1107.02 347.763 1105.39 349.325 1103.17 350.55L1104.61 353.179ZM1110.73 347.412L1113.29 348.976C1115.04 346.115 1115.91 342.971 1115.91 339.607H1112.91H1109.91C1109.91 341.876 1109.34 343.936 1108.17 345.848L1110.73 347.412ZM1112.91 339.607H1115.91V330.608H1112.91H1109.91V339.607H1112.91ZM1112.91 330.608L1111.01 328.292C1111.01 328.289 1110.98 328.315 1110.9 328.363C1110.82 328.41 1110.7 328.47 1110.54 328.542C1110.22 328.686 1109.78 328.849 1109.19 329.021L1110.03 331.901L1110.87 334.78C1112.33 334.355 1113.77 333.788 1114.82 332.924L1112.91 330.608ZM1110.03 331.901L1109.17 329.027C1107.97 329.386 1106.59 329.71 1105.03 329.992L1105.56 332.945L1106.09 335.897C1107.83 335.583 1109.44 335.21 1110.89 334.774L1110.03 331.901ZM1105.56 332.945L1105.03 329.992C1103.4 330.284 1101.8 330.543 1100.21 330.77L1100.64 333.74L1101.06 336.71C1102.72 336.473 1104.4 336.202 1106.09 335.897L1105.56 332.945ZM1100.64 333.74L1100.21 330.77C1098.59 331.002 1097.18 331.2 1096 331.365L1096.41 334.337L1096.82 337.308C1098.02 337.142 1099.43 336.942 1101.06 336.71L1100.64 333.74ZM1096.41 334.337L1096.01 331.364C1093.13 331.755 1090.49 332.402 1088.11 333.332L1089.2 336.126L1090.29 338.921C1092.15 338.193 1094.32 337.648 1096.81 337.309L1096.41 334.337ZM1089.2 336.126L1088.11 333.332C1085.6 334.314 1083.47 335.748 1081.86 337.701L1084.18 339.607L1086.5 341.512C1087.34 340.482 1088.56 339.596 1090.29 338.921L1089.2 336.126ZM1084.18 339.607L1081.88 337.676C1080.11 339.786 1079.34 342.407 1079.34 345.274H1082.34H1085.34C1085.34 343.501 1085.8 342.344 1086.48 341.537L1084.18 339.607ZM1082.34 345.274H1079.34C1079.34 349.428 1080.92 352.913 1084.25 355.241L1085.97 352.781L1087.69 350.322C1086.18 349.269 1085.34 347.749 1085.34 345.274H1082.34ZM1085.97 352.781L1084.25 355.241C1087.29 357.367 1091.02 358.317 1095.22 358.317V355.317V352.317C1091.92 352.317 1089.48 351.576 1087.69 350.322L1085.97 352.781Z" fill="black" mask="url(#path-5-outside-1_14_122)"/>
<defs>
<filter id="filter0_di_14_122" x="0" y="0" width="1210" height="640" filterUnits="userSpaceOnUse" color-interpolation-filters="sRGB">
<feFlood flood-opacity="0" result="BackgroundImageFix"/>
<feColorMatrix in="SourceAlpha" type="matrix" values="0 0 0 0 0 0 0 0 0 0 0 0 0 0 0 0 0 0 127 0" result="hardAlpha"/>
<feOffset dx="4" dy="4"/>
<feGaussianBlur stdDeviation="2"/>
<feComposite in2="hardAlpha" operator="out"/>
<feColorMatrix type="matrix" values="0 0 0 0 0 0 0 0 0 0 0 0 0 0 0 0 0 0 0.4 0"/>
<feBlend mode="normal" in2="BackgroundImageFix" result="effect1_dropShadow_14_122"/>
<feBlend mode="normal" in="SourceGraphic" in2="effect1_dropShadow_14_122" result="shape"/>
<feColorMatrix in="SourceAlpha" type="matrix" values="0 0 0 0 0 0 0 0 0 0 0 0 0 0 0 0 0 0 127 0" result="hardAlpha"/>
<feOffset dx="3" dy="4"/>
<feGaussianBlur stdDeviation="2"/>
<feComposite in2="hardAlpha" operator="arithmetic" k2="-1" k3="1"/>
<feColorMatrix type="matrix" values="0 0 0 0 0 0 0 0 0 0 0 0 0 0 0 0 0 0 0.5 0"/>
<feBlend mode="normal" in2="shape" result="effect2_innerShadow_14_122"/>
</filter>
<filter id="filter1_di_14_122" x="225.992" y="156.317" width="311.508" height="308.588" filterUnits="userSpaceOnUse" color-interpolation-filters="sRGB">
<feFlood flood-opacity="0" result="BackgroundImageFix"/>
<feColorMatrix in="SourceAlpha" type="matrix" values="0 0 0 0 0 0 0 0 0 0 0 0 0 0 0 0 0 0 127 0" result="hardAlpha"/>
<feOffset dx="4" dy="4"/>
<feGaussianBlur stdDeviation="2"/>
<feComposite in2="hardAlpha" operator="out"/>
<feColorMatrix type="matrix" values="0 0 0 0 0 0 0 0 0 0 0 0 0 0 0 0 0 0 0.4 0"/>
<feBlend mode="normal" in2="BackgroundImageFix" result="effect1_dropShadow_14_122"/>
<feBlend mode="normal" in="SourceGraphic" in2="effect1_dropShadow_14_122" result="shape"/>
<feColorMatrix in="SourceAlpha" type="matrix" values="0 0 0 0 0 0 0 0 0 0 0 0 0 0 0 0 0 0 127 0" result="hardAlpha"/>
<feOffset dx="3" dy="4"/>
<feGaussianBlur stdDeviation="2"/>
<feComposite in2="hardAlpha" operator="arithmetic" k2="-1" k3="1"/>
<feColorMatrix type="matrix" values="0 0 0 0 0 0 0 0 0 0 0 0 0 0 0 0 0 0 0.5 0"/>
<feBlend mode="normal" in2="shape" result="effect2_innerShadow_14_122"/>
</filter>
<filter id="filter2_di_14_122" x="311.767" y="294.78" width="224.233" height="255.72" filterUnits="userSpaceOnUse" color-interpolation-filters="sRGB">
<feFlood flood-opacity="0" result="BackgroundImageFix"/>
<feColorMatrix in="SourceAlpha" type="matrix" values="0 0 0 0 0 0 0 0 0 0 0 0 0 0 0 0 0 0 127 0" result="hardAlpha"/>
<feOffset dx="3" dy="4"/>
<feGaussianBlur stdDeviation="2"/>
<feComposite in2="hardAlpha" operator="out"/>
<feColorMatrix type="matrix" values="0 0 0 0 0 0 0 0 0 0 0 0 0 0 0 0 0 0 0.5 0"/>
<feBlend mode="normal" in2="BackgroundImageFix" result="effect1_dropShadow_14_122"/>
<feBlend mode="normal" in="SourceGraphic" in2="effect1_dropShadow_14_122" result="shape"/>
<feColorMatrix in="SourceAlpha" type="matrix" values="0 0 0 0 0 0 0 0 0 0 0 0 0 0 0 0 0 0 127 0" result="hardAlpha"/>
<feOffset dx="4" dy="4"/>
<feGaussianBlur stdDeviation="2"/>
<feComposite in2="hardAlpha" operator="arithmetic" k2="-1" k3="1"/>
<feColorMatrix type="matrix" values="0 0 0 0 0 0 0 0 0 0 0 0 0 0 0 0 0 0 0.4 0"/>
<feBlend mode="normal" in2="shape" result="effect2_innerShadow_14_122"/>
</filter>
<filter id="filter3_di_14_122" x="75.5" y="89.4999" width="460.344" height="461" filterUnits="userSpaceOnUse" color-interpolation-filters="sRGB">
<feFlood flood-opacity="0" result="BackgroundImageFix"/>
<feColorMatrix in="SourceAlpha" type="matrix" values="0 0 0 0 0 0 0 0 0 0 0 0 0 0 0 0 0 0 127 0" result="hardAlpha"/>
<feOffset dx="3" dy="4"/>
<feGaussianBlur stdDeviation="2"/>
<feComposite in2="hardAlpha" operator="out"/>
<feColorMatrix type="matrix" values="0 0 0 0 0 0 0 0 0 0 0 0 0 0 0 0 0 0 0.5 0"/>
<feBlend mode="normal" in2="BackgroundImageFix" result="effect1_dropShadow_14_122"/>
<feBlend mode="normal" in="SourceGraphic" in2="effect1_dropShadow_14_122" result="shape"/>
<feColorMatrix in="SourceAlpha" type="matrix" values="0 0 0 0 0 0 0 0 0 0 0 0 0 0 0 0 0 0 127 0" result="hardAlpha"/>
<feOffset dx="4" dy="4"/>
<feGaussianBlur stdDeviation="2"/>
<feComposite in2="hardAlpha" operator="arithmetic" k2="-1" k3="1"/>
<feColorMatrix type="matrix" values="0 0 0 0 0 0 0 0 0 0 0 0 0 0 0 0 0 0 0.4 0"/>
<feBlend mode="normal" in2="shape" result="effect2_innerShadow_14_122"/>
</filter>
</defs>
</svg>
